<mxfile host="65bd71144e">
    <diagram id="7u2UkJnMmicxcL1roAB4" name="ページ1">
        <mxGraphModel dx="338" dy="158" grid="1" gridSize="10" guides="1" tooltips="1" connect="1" arrows="1" fold="1" page="1" pageScale="1" pageWidth="827" pageHeight="1169" math="0" shadow="0">
            <root>
                <mxCell id="0"/>
                <mxCell id="1" parent="0"/>
                <mxCell id="2" value="&lt;font style=&quot;font-size: 18px ; line-height: 100%&quot;&gt;Robot&lt;/font&gt;" style="swimlane;fontStyle=0;align=center;verticalAlign=top;childLayout=stackLayout;horizontal=1;startSize=30;horizontalStack=0;resizeParent=1;resizeParentMax=0;resizeLast=0;collapsible=0;marginBottom=0;html=1;" parent="1" vertex="1">
                    <mxGeometry x="400" y="80" width="140" height="358" as="geometry"/>
                </mxCell>
                <mxCell id="3" value="attributes" style="text;html=1;strokeColor=none;fillColor=none;align=center;verticalAlign=middle;spacingLeft=4;spacingRight=4;overflow=hidden;rotatable=0;points=[[0,0.5],[1,0.5]];portConstraint=eastwest;" parent="2" vertex="1">
                    <mxGeometry y="30" width="140" height="20" as="geometry"/>
                </mxCell>
                <mxCell id="4" value="pose" style="text;html=1;strokeColor=none;fillColor=none;align=left;verticalAlign=middle;spacingLeft=4;spacingRight=4;overflow=hidden;rotatable=0;points=[[0,0.5],[1,0.5]];portConstraint=eastwest;" parent="2" vertex="1">
                    <mxGeometry y="50" width="140" height="20" as="geometry"/>
                </mxCell>
                <mxCell id="118" value="size" style="text;html=1;strokeColor=none;fillColor=none;align=left;verticalAlign=middle;spacingLeft=4;spacingRight=4;overflow=hidden;rotatable=0;points=[[0,0.5],[1,0.5]];portConstraint=eastwest;" vertex="1" parent="2">
                    <mxGeometry y="70" width="140" height="20" as="geometry"/>
                </mxCell>
                <mxCell id="147" value="color" style="text;html=1;strokeColor=none;fillColor=none;align=left;verticalAlign=middle;spacingLeft=4;spacingRight=4;overflow=hidden;rotatable=0;points=[[0,0.5],[1,0.5]];portConstraint=eastwest;" vertex="1" parent="2">
                    <mxGeometry y="90" width="140" height="20" as="geometry"/>
                </mxCell>
                <mxCell id="90" value="sensor" style="text;html=1;strokeColor=none;fillColor=none;align=left;verticalAlign=middle;spacingLeft=4;spacingRight=4;overflow=hidden;rotatable=0;points=[[0,0.5],[1,0.5]];portConstraint=eastwest;" parent="2" vertex="1">
                    <mxGeometry y="110" width="140" height="20" as="geometry"/>
                </mxCell>
                <mxCell id="87" value="localizer" style="text;html=1;strokeColor=none;fillColor=none;align=left;verticalAlign=middle;spacingLeft=4;spacingRight=4;overflow=hidden;rotatable=0;points=[[0,0.5],[1,0.5]];portConstraint=eastwest;" parent="2" vertex="1">
                    <mxGeometry y="130" width="140" height="20" as="geometry"/>
                </mxCell>
                <mxCell id="88" value="path_planner" style="text;html=1;strokeColor=none;fillColor=none;align=left;verticalAlign=middle;spacingLeft=4;spacingRight=4;overflow=hidden;rotatable=0;points=[[0,0.5],[1,0.5]];portConstraint=eastwest;" parent="2" vertex="1">
                    <mxGeometry y="150" width="140" height="20" as="geometry"/>
                </mxCell>
                <mxCell id="89" value="controller" style="text;html=1;strokeColor=none;fillColor=none;align=left;verticalAlign=middle;spacingLeft=4;spacingRight=4;overflow=hidden;rotatable=0;points=[[0,0.5],[1,0.5]];portConstraint=eastwest;" parent="2" vertex="1">
                    <mxGeometry y="170" width="140" height="20" as="geometry"/>
                </mxCell>
                <mxCell id="91" value="sensing_planner" style="text;html=1;strokeColor=none;fillColor=none;align=left;verticalAlign=middle;spacingLeft=4;spacingRight=4;overflow=hidden;rotatable=0;points=[[0,0.5],[1,0.5]];portConstraint=eastwest;" parent="2" vertex="1">
                    <mxGeometry y="190" width="140" height="20" as="geometry"/>
                </mxCell>
                <mxCell id="99" value="mapper" style="text;html=1;strokeColor=none;fillColor=none;align=left;verticalAlign=middle;spacingLeft=4;spacingRight=4;overflow=hidden;rotatable=0;points=[[0,0.5],[1,0.5]];portConstraint=eastwest;" parent="2" vertex="1">
                    <mxGeometry y="210" width="140" height="20" as="geometry"/>
                </mxCell>
                <mxCell id="136" value="collision_detector" style="text;html=1;strokeColor=none;fillColor=none;align=left;verticalAlign=middle;spacingLeft=4;spacingRight=4;overflow=hidden;rotatable=0;points=[[0,0.5],[1,0.5]];portConstraint=eastwest;" vertex="1" parent="2">
                    <mxGeometry y="230" width="140" height="20" as="geometry"/>
                </mxCell>
                <mxCell id="125" value="history" style="text;html=1;strokeColor=none;fillColor=none;align=left;verticalAlign=middle;spacingLeft=4;spacingRight=4;overflow=hidden;rotatable=0;points=[[0,0.5],[1,0.5]];portConstraint=eastwest;" vertex="1" parent="2">
                    <mxGeometry y="250" width="140" height="20" as="geometry"/>
                </mxCell>
                <mxCell id="7" value="" style="line;strokeWidth=1;fillColor=none;align=left;verticalAlign=middle;spacingTop=-1;spacingLeft=3;spacingRight=3;rotatable=0;labelPosition=right;points=[];portConstraint=eastwest;" parent="2" vertex="1">
                    <mxGeometry y="270" width="140" height="8" as="geometry"/>
                </mxCell>
                <mxCell id="8" value="operations" style="text;html=1;strokeColor=none;fillColor=none;align=center;verticalAlign=middle;spacingLeft=4;spacingRight=4;overflow=hidden;rotatable=0;points=[[0,0.5],[1,0.5]];portConstraint=eastwest;" parent="2" vertex="1">
                    <mxGeometry y="278" width="140" height="20" as="geometry"/>
                </mxCell>
                <mxCell id="9" value="move_one_steo" style="text;html=1;strokeColor=none;fillColor=none;align=left;verticalAlign=middle;spacingLeft=4;spacingRight=4;overflow=hidden;rotatable=0;points=[[0,0.5],[1,0.5]];portConstraint=eastwest;" parent="2" vertex="1">
                    <mxGeometry y="298" width="140" height="20" as="geometry"/>
                </mxCell>
                <mxCell id="122" value="mapping" style="text;html=1;strokeColor=none;fillColor=none;align=left;verticalAlign=middle;spacingLeft=4;spacingRight=4;overflow=hidden;rotatable=0;points=[[0,0.5],[1,0.5]];portConstraint=eastwest;" vertex="1" parent="2">
                    <mxGeometry y="318" width="140" height="20" as="geometry"/>
                </mxCell>
                <mxCell id="115" value="reset" style="text;html=1;strokeColor=none;fillColor=none;align=left;verticalAlign=middle;spacingLeft=4;spacingRight=4;overflow=hidden;rotatable=0;points=[[0,0.5],[1,0.5]];portConstraint=eastwest;" parent="2" vertex="1">
                    <mxGeometry y="338" width="140" height="20" as="geometry"/>
                </mxCell>
                <mxCell id="10" value="&lt;font style=&quot;font-size: 18px ; line-height: 100%&quot;&gt;World&lt;/font&gt;" style="swimlane;fontStyle=0;align=center;verticalAlign=top;childLayout=stackLayout;horizontal=1;startSize=32;horizontalStack=0;resizeParent=1;resizeParentMax=0;resizeLast=0;collapsible=0;marginBottom=0;html=1;" parent="1" vertex="1">
                    <mxGeometry y="118" width="140" height="320" as="geometry"/>
                </mxCell>
                <mxCell id="11" value="attributes" style="text;html=1;strokeColor=none;fillColor=none;align=center;verticalAlign=middle;spacingLeft=4;spacingRight=4;overflow=hidden;rotatable=0;points=[[0,0.5],[1,0.5]];portConstraint=eastwest;" parent="10" vertex="1">
                    <mxGeometry y="32" width="140" height="20" as="geometry"/>
                </mxCell>
                <mxCell id="12" value="robots" style="text;html=1;strokeColor=none;fillColor=none;align=left;verticalAlign=middle;spacingLeft=4;spacingRight=4;overflow=hidden;rotatable=0;points=[[0,0.5],[1,0.5]];portConstraint=eastwest;" parent="10" vertex="1">
                    <mxGeometry y="52" width="140" height="20" as="geometry"/>
                </mxCell>
                <mxCell id="84" value="obstacles" style="text;html=1;strokeColor=none;fillColor=none;align=left;verticalAlign=middle;spacingLeft=4;spacingRight=4;overflow=hidden;rotatable=0;points=[[0,0.5],[1,0.5]];portConstraint=eastwest;" parent="10" vertex="1">
                    <mxGeometry y="72" width="140" height="20" as="geometry"/>
                </mxCell>
                <mxCell id="146" value="step" style="text;html=1;strokeColor=none;fillColor=none;align=left;verticalAlign=middle;spacingLeft=4;spacingRight=4;overflow=hidden;rotatable=0;points=[[0,0.5],[1,0.5]];portConstraint=eastwest;" vertex="1" parent="10">
                    <mxGeometry y="92" width="140" height="20" as="geometry"/>
                </mxCell>
                <mxCell id="103" value="time_interval" style="text;html=1;strokeColor=none;fillColor=none;align=left;verticalAlign=middle;spacingLeft=4;spacingRight=4;overflow=hidden;rotatable=0;points=[[0,0.5],[1,0.5]];portConstraint=eastwest;" parent="10" vertex="1">
                    <mxGeometry y="112" width="140" height="20" as="geometry"/>
                </mxCell>
                <mxCell id="104" value="end_step" style="text;html=1;strokeColor=none;fillColor=none;align=left;verticalAlign=middle;spacingLeft=4;spacingRight=4;overflow=hidden;rotatable=0;points=[[0,0.5],[1,0.5]];portConstraint=eastwest;" parent="10" vertex="1">
                    <mxGeometry y="132" width="140" height="20" as="geometry"/>
                </mxCell>
                <mxCell id="15" value="" style="line;strokeWidth=1;fillColor=none;align=left;verticalAlign=middle;spacingTop=-1;spacingLeft=3;spacingRight=3;rotatable=0;labelPosition=right;points=[];portConstraint=eastwest;" parent="10" vertex="1">
                    <mxGeometry y="152" width="140" height="8" as="geometry"/>
                </mxCell>
                <mxCell id="16" value="operations" style="text;html=1;strokeColor=none;fillColor=none;align=center;verticalAlign=middle;spacingLeft=4;spacingRight=4;overflow=hidden;rotatable=0;points=[[0,0.5],[1,0.5]];portConstraint=eastwest;" parent="10" vertex="1">
                    <mxGeometry y="160" width="140" height="20" as="geometry"/>
                </mxCell>
                <mxCell id="139" value="simulate" style="text;html=1;strokeColor=none;fillColor=none;align=left;verticalAlign=middle;spacingLeft=4;spacingRight=4;overflow=hidden;rotatable=0;points=[[0,0.5],[1,0.5]];portConstraint=eastwest;" vertex="1" parent="10">
                    <mxGeometry y="180" width="140" height="20" as="geometry"/>
                </mxCell>
                <mxCell id="17" value="one_step" style="text;html=1;strokeColor=none;fillColor=none;align=left;verticalAlign=middle;spacingLeft=4;spacingRight=4;overflow=hidden;rotatable=0;points=[[0,0.5],[1,0.5]];portConstraint=eastwest;" parent="10" vertex="1">
                    <mxGeometry y="200" width="140" height="20" as="geometry"/>
                </mxCell>
                <mxCell id="120" value="append_robot" style="text;html=1;strokeColor=none;fillColor=none;align=left;verticalAlign=middle;spacingLeft=4;spacingRight=4;overflow=hidden;rotatable=0;points=[[0,0.5],[1,0.5]];portConstraint=eastwest;" vertex="1" parent="10">
                    <mxGeometry y="220" width="140" height="20" as="geometry"/>
                </mxCell>
                <mxCell id="121" value="append_obstacle" style="text;html=1;strokeColor=none;fillColor=none;align=left;verticalAlign=middle;spacingLeft=4;spacingRight=4;overflow=hidden;rotatable=0;points=[[0,0.5],[1,0.5]];portConstraint=eastwest;" vertex="1" parent="10">
                    <mxGeometry y="240" width="140" height="20" as="geometry"/>
                </mxCell>
                <mxCell id="114" value="reset" style="text;html=1;strokeColor=none;fillColor=none;align=left;verticalAlign=middle;spacingLeft=4;spacingRight=4;overflow=hidden;rotatable=0;points=[[0,0.5],[1,0.5]];portConstraint=eastwest;" parent="10" vertex="1">
                    <mxGeometry y="260" width="140" height="20" as="geometry"/>
                </mxCell>
                <mxCell id="144" value="plot" style="text;html=1;strokeColor=none;fillColor=none;align=left;verticalAlign=middle;spacingLeft=4;spacingRight=4;overflow=hidden;rotatable=0;points=[[0,0.5],[1,0.5]];portConstraint=eastwest;" vertex="1" parent="10">
                    <mxGeometry y="280" width="140" height="20" as="geometry"/>
                </mxCell>
                <mxCell id="145" value="animation" style="text;html=1;strokeColor=none;fillColor=none;align=left;verticalAlign=middle;spacingLeft=4;spacingRight=4;overflow=hidden;rotatable=0;points=[[0,0.5],[1,0.5]];portConstraint=eastwest;" vertex="1" parent="10">
                    <mxGeometry y="300" width="140" height="20" as="geometry"/>
                </mxCell>
                <mxCell id="18" value="&lt;font style=&quot;font-size: 18px ; line-height: 100%&quot;&gt;Localizer&lt;/font&gt;" style="swimlane;fontStyle=0;align=center;verticalAlign=top;childLayout=stackLayout;horizontal=1;startSize=29;horizontalStack=0;resizeParent=1;resizeParentMax=0;resizeLast=0;collapsible=0;marginBottom=0;html=1;" parent="1" vertex="1">
                    <mxGeometry x="680" y="204" width="140" height="117" as="geometry"/>
                </mxCell>
                <mxCell id="19" value="attributes" style="text;html=1;strokeColor=none;fillColor=none;align=center;verticalAlign=middle;spacingLeft=4;spacingRight=4;overflow=hidden;rotatable=0;points=[[0,0.5],[1,0.5]];portConstraint=eastwest;" parent="18" vertex="1">
                    <mxGeometry y="29" width="140" height="20" as="geometry"/>
                </mxCell>
                <mxCell id="20" value="error_rate" style="text;html=1;strokeColor=none;fillColor=none;align=left;verticalAlign=middle;spacingLeft=4;spacingRight=4;overflow=hidden;rotatable=0;points=[[0,0.5],[1,0.5]];portConstraint=eastwest;" parent="18" vertex="1">
                    <mxGeometry y="49" width="140" height="20" as="geometry"/>
                </mxCell>
                <mxCell id="23" value="" style="line;strokeWidth=1;fillColor=none;align=left;verticalAlign=middle;spacingTop=-1;spacingLeft=3;spacingRight=3;rotatable=0;labelPosition=right;points=[];portConstraint=eastwest;" parent="18" vertex="1">
                    <mxGeometry y="69" width="140" height="8" as="geometry"/>
                </mxCell>
                <mxCell id="24" value="operations" style="text;html=1;strokeColor=none;fillColor=none;align=center;verticalAlign=middle;spacingLeft=4;spacingRight=4;overflow=hidden;rotatable=0;points=[[0,0.5],[1,0.5]];portConstraint=eastwest;" parent="18" vertex="1">
                    <mxGeometry y="77" width="140" height="20" as="geometry"/>
                </mxCell>
                <mxCell id="25" value="estimate_pose" style="text;html=1;strokeColor=none;fillColor=none;align=left;verticalAlign=middle;spacingLeft=4;spacingRight=4;overflow=hidden;rotatable=0;points=[[0,0.5],[1,0.5]];portConstraint=eastwest;" parent="18" vertex="1">
                    <mxGeometry y="97" width="140" height="20" as="geometry"/>
                </mxCell>
                <mxCell id="26" value="&lt;font style=&quot;font-size: 18px ; line-height: 100%&quot;&gt;PathPlanner&lt;/font&gt;" style="swimlane;fontStyle=0;align=center;verticalAlign=top;childLayout=stackLayout;horizontal=1;startSize=30;horizontalStack=0;resizeParent=1;resizeParentMax=0;resizeLast=0;collapsible=0;marginBottom=0;html=1;" parent="1" vertex="1">
                    <mxGeometry x="680" y="350" width="140" height="118" as="geometry"/>
                </mxCell>
                <mxCell id="27" value="attributes" style="text;html=1;strokeColor=none;fillColor=none;align=center;verticalAlign=middle;spacingLeft=4;spacingRight=4;overflow=hidden;rotatable=0;points=[[0,0.5],[1,0.5]];portConstraint=eastwest;" parent="26" vertex="1">
                    <mxGeometry y="30" width="140" height="20" as="geometry"/>
                </mxCell>
                <mxCell id="28" value="attribute1" style="text;html=1;strokeColor=none;fillColor=none;align=left;verticalAlign=middle;spacingLeft=4;spacingRight=4;overflow=hidden;rotatable=0;points=[[0,0.5],[1,0.5]];portConstraint=eastwest;" parent="26" vertex="1">
                    <mxGeometry y="50" width="140" height="20" as="geometry"/>
                </mxCell>
                <mxCell id="31" value="" style="line;strokeWidth=1;fillColor=none;align=left;verticalAlign=middle;spacingTop=-1;spacingLeft=3;spacingRight=3;rotatable=0;labelPosition=right;points=[];portConstraint=eastwest;" parent="26" vertex="1">
                    <mxGeometry y="70" width="140" height="8" as="geometry"/>
                </mxCell>
                <mxCell id="32" value="operations" style="text;html=1;strokeColor=none;fillColor=none;align=center;verticalAlign=middle;spacingLeft=4;spacingRight=4;overflow=hidden;rotatable=0;points=[[0,0.5],[1,0.5]];portConstraint=eastwest;" parent="26" vertex="1">
                    <mxGeometry y="78" width="140" height="20" as="geometry"/>
                </mxCell>
                <mxCell id="33" value="calculate_path" style="text;html=1;strokeColor=none;fillColor=none;align=left;verticalAlign=middle;spacingLeft=4;spacingRight=4;overflow=hidden;rotatable=0;points=[[0,0.5],[1,0.5]];portConstraint=eastwest;" parent="26" vertex="1">
                    <mxGeometry y="98" width="140" height="20" as="geometry"/>
                </mxCell>
                <mxCell id="34" value="&lt;font style=&quot;font-size: 18px ; line-height: 100%&quot;&gt;Controller&lt;br&gt;&lt;/font&gt;" style="swimlane;fontStyle=0;align=center;verticalAlign=top;childLayout=stackLayout;horizontal=1;startSize=30;horizontalStack=0;resizeParent=1;resizeParentMax=0;resizeLast=0;collapsible=0;marginBottom=0;html=1;" parent="1" vertex="1">
                    <mxGeometry x="680" y="478" width="140" height="118" as="geometry"/>
                </mxCell>
                <mxCell id="35" value="attributes" style="text;html=1;strokeColor=none;fillColor=none;align=center;verticalAlign=middle;spacingLeft=4;spacingRight=4;overflow=hidden;rotatable=0;points=[[0,0.5],[1,0.5]];portConstraint=eastwest;" parent="34" vertex="1">
                    <mxGeometry y="30" width="140" height="20" as="geometry"/>
                </mxCell>
                <mxCell id="36" value="attribute1" style="text;html=1;strokeColor=none;fillColor=none;align=left;verticalAlign=middle;spacingLeft=4;spacingRight=4;overflow=hidden;rotatable=0;points=[[0,0.5],[1,0.5]];portConstraint=eastwest;" parent="34" vertex="1">
                    <mxGeometry y="50" width="140" height="20" as="geometry"/>
                </mxCell>
                <mxCell id="39" value="" style="line;strokeWidth=1;fillColor=none;align=left;verticalAlign=middle;spacingTop=-1;spacingLeft=3;spacingRight=3;rotatable=0;labelPosition=right;points=[];portConstraint=eastwest;" parent="34" vertex="1">
                    <mxGeometry y="70" width="140" height="8" as="geometry"/>
                </mxCell>
                <mxCell id="40" value="operations" style="text;html=1;strokeColor=none;fillColor=none;align=center;verticalAlign=middle;spacingLeft=4;spacingRight=4;overflow=hidden;rotatable=0;points=[[0,0.5],[1,0.5]];portConstraint=eastwest;" parent="34" vertex="1">
                    <mxGeometry y="78" width="140" height="20" as="geometry"/>
                </mxCell>
                <mxCell id="41" value="calculate_control_inputs" style="text;html=1;strokeColor=none;fillColor=none;align=left;verticalAlign=middle;spacingLeft=4;spacingRight=4;overflow=hidden;rotatable=0;points=[[0,0.5],[1,0.5]];portConstraint=eastwest;" parent="34" vertex="1">
                    <mxGeometry y="98" width="140" height="20" as="geometry"/>
                </mxCell>
                <mxCell id="42" value="&lt;font style=&quot;font-size: 18px ; line-height: 100%&quot;&gt;Sensor&lt;/font&gt;" style="swimlane;fontStyle=0;align=center;verticalAlign=top;childLayout=stackLayout;horizontal=1;startSize=30;horizontalStack=0;resizeParent=1;resizeParentMax=0;resizeLast=0;collapsible=0;marginBottom=0;html=1;" parent="1" vertex="1">
                    <mxGeometry x="680" width="140" height="158" as="geometry"/>
                </mxCell>
                <mxCell id="43" value="attributes" style="text;html=1;strokeColor=none;fillColor=none;align=center;verticalAlign=middle;spacingLeft=4;spacingRight=4;overflow=hidden;rotatable=0;points=[[0,0.5],[1,0.5]];portConstraint=eastwest;" parent="42" vertex="1">
                    <mxGeometry y="30" width="140" height="20" as="geometry"/>
                </mxCell>
                <mxCell id="44" value="range" style="text;html=1;strokeColor=none;fillColor=none;align=left;verticalAlign=middle;spacingLeft=4;spacingRight=4;overflow=hidden;rotatable=0;points=[[0,0.5],[1,0.5]];portConstraint=eastwest;" parent="42" vertex="1">
                    <mxGeometry y="50" width="140" height="20" as="geometry"/>
                </mxCell>
                <mxCell id="135" value="fov" style="text;html=1;strokeColor=none;fillColor=none;align=left;verticalAlign=middle;spacingLeft=4;spacingRight=4;overflow=hidden;rotatable=0;points=[[0,0.5],[1,0.5]];portConstraint=eastwest;" vertex="1" parent="42">
                    <mxGeometry y="70" width="140" height="20" as="geometry"/>
                </mxCell>
                <mxCell id="140" value="error_rate" style="text;html=1;strokeColor=none;fillColor=none;align=left;verticalAlign=middle;spacingLeft=4;spacingRight=4;overflow=hidden;rotatable=0;points=[[0,0.5],[1,0.5]];portConstraint=eastwest;" vertex="1" parent="42">
                    <mxGeometry y="90" width="140" height="20" as="geometry"/>
                </mxCell>
                <mxCell id="47" value="" style="line;strokeWidth=1;fillColor=none;align=left;verticalAlign=middle;spacingTop=-1;spacingLeft=3;spacingRight=3;rotatable=0;labelPosition=right;points=[];portConstraint=eastwest;" parent="42" vertex="1">
                    <mxGeometry y="110" width="140" height="8" as="geometry"/>
                </mxCell>
                <mxCell id="48" value="operations" style="text;html=1;strokeColor=none;fillColor=none;align=center;verticalAlign=middle;spacingLeft=4;spacingRight=4;overflow=hidden;rotatable=0;points=[[0,0.5],[1,0.5]];portConstraint=eastwest;" parent="42" vertex="1">
                    <mxGeometry y="118" width="140" height="20" as="geometry"/>
                </mxCell>
                <mxCell id="49" value="sense" style="text;html=1;strokeColor=none;fillColor=none;align=left;verticalAlign=middle;spacingLeft=4;spacingRight=4;overflow=hidden;rotatable=0;points=[[0,0.5],[1,0.5]];portConstraint=eastwest;" parent="42" vertex="1">
                    <mxGeometry y="138" width="140" height="20" as="geometry"/>
                </mxCell>
                <mxCell id="50" value="&lt;font style=&quot;font-size: 18px ; line-height: 100%&quot;&gt;SensingPlanner&lt;/font&gt;" style="swimlane;fontStyle=0;align=center;verticalAlign=top;childLayout=stackLayout;horizontal=1;startSize=32;horizontalStack=0;resizeParent=1;resizeParentMax=0;resizeLast=0;collapsible=0;marginBottom=0;html=1;" parent="1" vertex="1">
                    <mxGeometry x="680" y="638" width="140" height="120" as="geometry"/>
                </mxCell>
                <mxCell id="51" value="attributes" style="text;html=1;strokeColor=none;fillColor=none;align=center;verticalAlign=middle;spacingLeft=4;spacingRight=4;overflow=hidden;rotatable=0;points=[[0,0.5],[1,0.5]];portConstraint=eastwest;" parent="50" vertex="1">
                    <mxGeometry y="32" width="140" height="20" as="geometry"/>
                </mxCell>
                <mxCell id="52" value="attribute1" style="text;html=1;strokeColor=none;fillColor=none;align=left;verticalAlign=middle;spacingLeft=4;spacingRight=4;overflow=hidden;rotatable=0;points=[[0,0.5],[1,0.5]];portConstraint=eastwest;" parent="50" vertex="1">
                    <mxGeometry y="52" width="140" height="20" as="geometry"/>
                </mxCell>
                <mxCell id="55" value="" style="line;strokeWidth=1;fillColor=none;align=left;verticalAlign=middle;spacingTop=-1;spacingLeft=3;spacingRight=3;rotatable=0;labelPosition=right;points=[];portConstraint=eastwest;" parent="50" vertex="1">
                    <mxGeometry y="72" width="140" height="8" as="geometry"/>
                </mxCell>
                <mxCell id="56" value="operations" style="text;html=1;strokeColor=none;fillColor=none;align=center;verticalAlign=middle;spacingLeft=4;spacingRight=4;overflow=hidden;rotatable=0;points=[[0,0.5],[1,0.5]];portConstraint=eastwest;" parent="50" vertex="1">
                    <mxGeometry y="80" width="140" height="20" as="geometry"/>
                </mxCell>
                <mxCell id="57" value="plan_sensing" style="text;html=1;strokeColor=none;fillColor=none;align=left;verticalAlign=middle;spacingLeft=4;spacingRight=4;overflow=hidden;rotatable=0;points=[[0,0.5],[1,0.5]];portConstraint=eastwest;" parent="50" vertex="1">
                    <mxGeometry y="100" width="140" height="20" as="geometry"/>
                </mxCell>
                <mxCell id="66" value="&lt;font style=&quot;font-size: 18px ; line-height: 100%&quot;&gt;CollisionDetector&lt;/font&gt;" style="swimlane;fontStyle=0;align=center;verticalAlign=top;childLayout=stackLayout;horizontal=1;startSize=30;horizontalStack=0;resizeParent=1;resizeParentMax=0;resizeLast=0;collapsible=0;marginBottom=0;html=1;" parent="1" vertex="1">
                    <mxGeometry x="400" y="639" width="140" height="118" as="geometry"/>
                </mxCell>
                <mxCell id="67" value="attributes" style="text;html=1;strokeColor=none;fillColor=none;align=center;verticalAlign=middle;spacingLeft=4;spacingRight=4;overflow=hidden;rotatable=0;points=[[0,0.5],[1,0.5]];portConstraint=eastwest;" parent="66" vertex="1">
                    <mxGeometry y="30" width="140" height="20" as="geometry"/>
                </mxCell>
                <mxCell id="68" value="attribute1" style="text;html=1;strokeColor=none;fillColor=none;align=left;verticalAlign=middle;spacingLeft=4;spacingRight=4;overflow=hidden;rotatable=0;points=[[0,0.5],[1,0.5]];portConstraint=eastwest;" parent="66" vertex="1">
                    <mxGeometry y="50" width="140" height="20" as="geometry"/>
                </mxCell>
                <mxCell id="71" value="" style="line;strokeWidth=1;fillColor=none;align=left;verticalAlign=middle;spacingTop=-1;spacingLeft=3;spacingRight=3;rotatable=0;labelPosition=right;points=[];portConstraint=eastwest;" parent="66" vertex="1">
                    <mxGeometry y="70" width="140" height="8" as="geometry"/>
                </mxCell>
                <mxCell id="72" value="operations" style="text;html=1;strokeColor=none;fillColor=none;align=center;verticalAlign=middle;spacingLeft=4;spacingRight=4;overflow=hidden;rotatable=0;points=[[0,0.5],[1,0.5]];portConstraint=eastwest;" parent="66" vertex="1">
                    <mxGeometry y="78" width="140" height="20" as="geometry"/>
                </mxCell>
                <mxCell id="73" value="detect_collision" style="text;html=1;strokeColor=none;fillColor=none;align=left;verticalAlign=middle;spacingLeft=4;spacingRight=4;overflow=hidden;rotatable=0;points=[[0,0.5],[1,0.5]];portConstraint=eastwest;" parent="66" vertex="1">
                    <mxGeometry y="98" width="140" height="20" as="geometry"/>
                </mxCell>
                <mxCell id="74" value="&lt;font style=&quot;font-size: 18px ; line-height: 100%&quot;&gt;Obstacle&lt;/font&gt;" style="swimlane;fontStyle=0;align=center;verticalAlign=top;childLayout=stackLayout;horizontal=1;startSize=30;horizontalStack=0;resizeParent=1;resizeParentMax=0;resizeLast=0;collapsible=0;marginBottom=0;html=1;" parent="1" vertex="1">
                    <mxGeometry x="210" y="238" width="140" height="158" as="geometry"/>
                </mxCell>
                <mxCell id="75" value="attributes" style="text;html=1;strokeColor=none;fillColor=none;align=center;verticalAlign=middle;spacingLeft=4;spacingRight=4;overflow=hidden;rotatable=0;points=[[0,0.5],[1,0.5]];portConstraint=eastwest;" parent="74" vertex="1">
                    <mxGeometry y="30" width="140" height="20" as="geometry"/>
                </mxCell>
                <mxCell id="76" value="position" style="text;html=1;strokeColor=none;fillColor=none;align=left;verticalAlign=middle;spacingLeft=4;spacingRight=4;overflow=hidden;rotatable=0;points=[[0,0.5],[1,0.5]];portConstraint=eastwest;" parent="74" vertex="1">
                    <mxGeometry y="50" width="140" height="20" as="geometry"/>
                </mxCell>
                <mxCell id="86" value="size" style="text;html=1;strokeColor=none;fillColor=none;align=left;verticalAlign=middle;spacingLeft=4;spacingRight=4;overflow=hidden;rotatable=0;points=[[0,0.5],[1,0.5]];portConstraint=eastwest;" parent="74" vertex="1">
                    <mxGeometry y="70" width="140" height="20" as="geometry"/>
                </mxCell>
                <mxCell id="119" value="type" style="text;html=1;strokeColor=none;fillColor=none;align=left;verticalAlign=middle;spacingLeft=4;spacingRight=4;overflow=hidden;rotatable=0;points=[[0,0.5],[1,0.5]];portConstraint=eastwest;" vertex="1" parent="74">
                    <mxGeometry y="90" width="140" height="20" as="geometry"/>
                </mxCell>
                <mxCell id="79" value="" style="line;strokeWidth=1;fillColor=none;align=left;verticalAlign=middle;spacingTop=-1;spacingLeft=3;spacingRight=3;rotatable=0;labelPosition=right;points=[];portConstraint=eastwest;" parent="74" vertex="1">
                    <mxGeometry y="110" width="140" height="8" as="geometry"/>
                </mxCell>
                <mxCell id="80" value="operations" style="text;html=1;strokeColor=none;fillColor=none;align=center;verticalAlign=middle;spacingLeft=4;spacingRight=4;overflow=hidden;rotatable=0;points=[[0,0.5],[1,0.5]];portConstraint=eastwest;" parent="74" vertex="1">
                    <mxGeometry y="118" width="140" height="20" as="geometry"/>
                </mxCell>
                <mxCell id="81" value="-" style="text;html=1;strokeColor=none;fillColor=none;align=left;verticalAlign=middle;spacingLeft=4;spacingRight=4;overflow=hidden;rotatable=0;points=[[0,0.5],[1,0.5]];portConstraint=eastwest;" parent="74" vertex="1">
                    <mxGeometry y="138" width="140" height="20" as="geometry"/>
                </mxCell>
                <mxCell id="58" value="&lt;font style=&quot;font-size: 18px ; line-height: 100%&quot;&gt;Mapper&lt;/font&gt;" style="swimlane;fontStyle=0;align=center;verticalAlign=top;childLayout=stackLayout;horizontal=1;startSize=30;horizontalStack=0;resizeParent=1;resizeParentMax=0;resizeLast=0;collapsible=0;marginBottom=0;html=1;" parent="1" vertex="1">
                    <mxGeometry x="400" y="480" width="140" height="138" as="geometry"/>
                </mxCell>
                <mxCell id="59" value="attributes" style="text;html=1;strokeColor=none;fillColor=none;align=center;verticalAlign=middle;spacingLeft=4;spacingRight=4;overflow=hidden;rotatable=0;points=[[0,0.5],[1,0.5]];portConstraint=eastwest;" parent="58" vertex="1">
                    <mxGeometry y="30" width="140" height="20" as="geometry"/>
                </mxCell>
                <mxCell id="60" value="attribute1" style="text;html=1;strokeColor=none;fillColor=none;align=left;verticalAlign=middle;spacingLeft=4;spacingRight=4;overflow=hidden;rotatable=0;points=[[0,0.5],[1,0.5]];portConstraint=eastwest;" parent="58" vertex="1">
                    <mxGeometry y="50" width="140" height="20" as="geometry"/>
                </mxCell>
                <mxCell id="63" value="" style="line;strokeWidth=1;fillColor=none;align=left;verticalAlign=middle;spacingTop=-1;spacingLeft=3;spacingRight=3;rotatable=0;labelPosition=right;points=[];portConstraint=eastwest;" parent="58" vertex="1">
                    <mxGeometry y="70" width="140" height="8" as="geometry"/>
                </mxCell>
                <mxCell id="64" value="operations" style="text;html=1;strokeColor=none;fillColor=none;align=center;verticalAlign=middle;spacingLeft=4;spacingRight=4;overflow=hidden;rotatable=0;points=[[0,0.5],[1,0.5]];portConstraint=eastwest;" parent="58" vertex="1">
                    <mxGeometry y="78" width="140" height="20" as="geometry"/>
                </mxCell>
                <mxCell id="143" value="update" style="text;html=1;strokeColor=none;fillColor=none;align=left;verticalAlign=middle;spacingLeft=4;spacingRight=4;overflow=hidden;rotatable=0;points=[[0,0.5],[1,0.5]];portConstraint=eastwest;" vertex="1" parent="58">
                    <mxGeometry y="98" width="140" height="20" as="geometry"/>
                </mxCell>
                <mxCell id="65" value="reset" style="text;html=1;strokeColor=none;fillColor=none;align=left;verticalAlign=middle;spacingLeft=4;spacingRight=4;overflow=hidden;rotatable=0;points=[[0,0.5],[1,0.5]];portConstraint=eastwest;" parent="58" vertex="1">
                    <mxGeometry y="118" width="140" height="20" as="geometry"/>
                </mxCell>
                <mxCell id="92" value="" style="endArrow=none;startArrow=diamondThin;endFill=0;startFill=1;html=1;verticalAlign=bottom;labelBackgroundColor=none;strokeWidth=1;startSize=8;endSize=8;entryX=0.001;entryY=0.121;entryDx=0;entryDy=0;entryPerimeter=0;exitX=1;exitY=0.5;exitDx=0;exitDy=0;" parent="1" source="87" target="18" edge="1">
                    <mxGeometry width="160" relative="1" as="geometry">
                        <mxPoint x="541" y="133" as="sourcePoint"/>
                        <mxPoint x="680" y="208" as="targetPoint"/>
                    </mxGeometry>
                </mxCell>
                <mxCell id="105" value="" style="endArrow=none;startArrow=diamondThin;endFill=0;startFill=1;html=1;verticalAlign=bottom;labelBackgroundColor=none;strokeWidth=1;startSize=8;endSize=8;entryX=-0.001;entryY=0.132;entryDx=0;entryDy=0;entryPerimeter=0;exitX=1;exitY=0.5;exitDx=0;exitDy=0;" parent="1" source="88" target="26" edge="1">
                    <mxGeometry width="160" relative="1" as="geometry">
                        <mxPoint x="590" y="218" as="sourcePoint"/>
                        <mxPoint x="690.1399999999999" y="143.15699999999998" as="targetPoint"/>
                        <Array as="points">
                            <mxPoint x="640" y="238"/>
                            <mxPoint x="640" y="366"/>
                        </Array>
                    </mxGeometry>
                </mxCell>
                <mxCell id="106" value="" style="endArrow=none;startArrow=diamondThin;endFill=0;startFill=1;html=1;verticalAlign=bottom;labelBackgroundColor=none;strokeWidth=1;startSize=8;endSize=8;entryX=-0.001;entryY=0.136;entryDx=0;entryDy=0;entryPerimeter=0;exitX=1;exitY=0.5;exitDx=0;exitDy=0;" parent="1" source="89" target="34" edge="1">
                    <mxGeometry width="160" relative="1" as="geometry">
                        <mxPoint x="540" y="218" as="sourcePoint"/>
                        <mxPoint x="700.1399999999999" y="153.15699999999998" as="targetPoint"/>
                        <Array as="points">
                            <mxPoint x="620" y="258"/>
                            <mxPoint x="620" y="494"/>
                        </Array>
                    </mxGeometry>
                </mxCell>
                <mxCell id="107" value="" style="endArrow=none;startArrow=diamondThin;endFill=0;startFill=1;html=1;verticalAlign=bottom;labelBackgroundColor=none;strokeWidth=1;startSize=8;endSize=8;entryX=0.004;entryY=0.11;entryDx=0;entryDy=0;entryPerimeter=0;exitX=1;exitY=0.5;exitDx=0;exitDy=0;" parent="1" source="90" target="42" edge="1">
                    <mxGeometry width="160" relative="1" as="geometry">
                        <mxPoint x="570" y="278" as="sourcePoint"/>
                        <mxPoint x="710.1399999999999" y="163.15699999999998" as="targetPoint"/>
                        <Array as="points">
                            <mxPoint x="620" y="198"/>
                            <mxPoint x="620" y="17"/>
                        </Array>
                    </mxGeometry>
                </mxCell>
                <mxCell id="108" value="" style="endArrow=none;startArrow=diamondThin;endFill=0;startFill=1;html=1;verticalAlign=bottom;labelBackgroundColor=none;strokeWidth=1;startSize=8;endSize=8;exitX=1;exitY=0.5;exitDx=0;exitDy=0;entryX=0.002;entryY=0.124;entryDx=0;entryDy=0;entryPerimeter=0;" parent="1" source="91" target="50" edge="1">
                    <mxGeometry width="160" relative="1" as="geometry">
                        <mxPoint x="580.0000000000001" y="172.99399999999997" as="sourcePoint"/>
                        <mxPoint x="680" y="649" as="targetPoint"/>
                        <Array as="points">
                            <mxPoint x="600" y="278"/>
                            <mxPoint x="600" y="653"/>
                        </Array>
                    </mxGeometry>
                </mxCell>
                <mxCell id="112" value="" style="endArrow=none;startArrow=diamondThin;endFill=0;startFill=0;html=1;verticalAlign=bottom;labelBackgroundColor=none;strokeWidth=1;startSize=8;endSize=8;exitX=1;exitY=0.5;exitDx=0;exitDy=0;entryX=-0.004;entryY=0.053;entryDx=0;entryDy=0;entryPerimeter=0;" parent="1" source="12" target="2" edge="1">
                    <mxGeometry width="160" relative="1" as="geometry">
                        <mxPoint x="90" y="188" as="sourcePoint"/>
                        <mxPoint x="250" y="188" as="targetPoint"/>
                        <Array as="points">
                            <mxPoint x="280" y="180"/>
                            <mxPoint x="280" y="99"/>
                        </Array>
                    </mxGeometry>
                </mxCell>
                <mxCell id="113" value="" style="endArrow=none;startArrow=diamondThin;endFill=0;startFill=0;html=1;verticalAlign=bottom;labelBackgroundColor=none;strokeWidth=1;startSize=8;endSize=8;exitX=1;exitY=0.5;exitDx=0;exitDy=0;entryX=0.5;entryY=0;entryDx=0;entryDy=0;" parent="1" source="84" target="74" edge="1">
                    <mxGeometry width="160" relative="1" as="geometry">
                        <mxPoint x="150" y="190" as="sourcePoint"/>
                        <mxPoint x="410" y="142.99400000000003" as="targetPoint"/>
                        <Array as="points">
                            <mxPoint x="280" y="200"/>
                        </Array>
                    </mxGeometry>
                </mxCell>
                <mxCell id="117" value="" style="endArrow=none;startArrow=diamondThin;endFill=0;startFill=1;html=1;verticalAlign=bottom;labelBackgroundColor=none;strokeWidth=1;startSize=8;endSize=8;entryX=1.003;entryY=0.132;entryDx=0;entryDy=0;entryPerimeter=0;exitX=0.996;exitY=0.516;exitDx=0;exitDy=0;exitPerimeter=0;" edge="1" parent="1" source="99" target="58">
                    <mxGeometry width="160" relative="1" as="geometry">
                        <mxPoint x="550" y="300" as="sourcePoint"/>
                        <mxPoint x="540" y="413" as="targetPoint"/>
                        <Array as="points">
                            <mxPoint x="580" y="298"/>
                            <mxPoint x="580" y="498"/>
                        </Array>
                    </mxGeometry>
                </mxCell>
                <mxCell id="126" value="&lt;font style=&quot;font-size: 18px ; line-height: 100%&quot;&gt;History&lt;/font&gt;" style="swimlane;fontStyle=0;align=center;verticalAlign=top;childLayout=stackLayout;horizontal=1;startSize=30;horizontalStack=0;resizeParent=1;resizeParentMax=0;resizeLast=0;collapsible=0;marginBottom=0;html=1;" vertex="1" parent="1">
                    <mxGeometry x="400" y="800" width="140" height="178" as="geometry"/>
                </mxCell>
                <mxCell id="127" value="attributes" style="text;html=1;strokeColor=none;fillColor=none;align=center;verticalAlign=middle;spacingLeft=4;spacingRight=4;overflow=hidden;rotatable=0;points=[[0,0.5],[1,0.5]];portConstraint=eastwest;" vertex="1" parent="126">
                    <mxGeometry y="30" width="140" height="20" as="geometry"/>
                </mxCell>
                <mxCell id="128" value="steps" style="text;html=1;strokeColor=none;fillColor=none;align=left;verticalAlign=middle;spacingLeft=4;spacingRight=4;overflow=hidden;rotatable=0;points=[[0,0.5],[1,0.5]];portConstraint=eastwest;" vertex="1" parent="126">
                    <mxGeometry y="50" width="140" height="20" as="geometry"/>
                </mxCell>
                <mxCell id="133" value="real_poses" style="text;html=1;strokeColor=none;fillColor=none;align=left;verticalAlign=middle;spacingLeft=4;spacingRight=4;overflow=hidden;rotatable=0;points=[[0,0.5],[1,0.5]];portConstraint=eastwest;" vertex="1" parent="126">
                    <mxGeometry y="70" width="140" height="20" as="geometry"/>
                </mxCell>
                <mxCell id="132" value="estimated_poses" style="text;html=1;strokeColor=none;fillColor=none;align=left;verticalAlign=middle;spacingLeft=4;spacingRight=4;overflow=hidden;rotatable=0;points=[[0,0.5],[1,0.5]];portConstraint=eastwest;" vertex="1" parent="126">
                    <mxGeometry y="90" width="140" height="20" as="geometry"/>
                </mxCell>
                <mxCell id="134" value="sensing_results" style="text;html=1;strokeColor=none;fillColor=none;align=left;verticalAlign=middle;spacingLeft=4;spacingRight=4;overflow=hidden;rotatable=0;points=[[0,0.5],[1,0.5]];portConstraint=eastwest;" vertex="1" parent="126">
                    <mxGeometry y="110" width="140" height="20" as="geometry"/>
                </mxCell>
                <mxCell id="129" value="" style="line;strokeWidth=1;fillColor=none;align=left;verticalAlign=middle;spacingTop=-1;spacingLeft=3;spacingRight=3;rotatable=0;labelPosition=right;points=[];portConstraint=eastwest;" vertex="1" parent="126">
                    <mxGeometry y="130" width="140" height="8" as="geometry"/>
                </mxCell>
                <mxCell id="130" value="operations" style="text;html=1;strokeColor=none;fillColor=none;align=center;verticalAlign=middle;spacingLeft=4;spacingRight=4;overflow=hidden;rotatable=0;points=[[0,0.5],[1,0.5]];portConstraint=eastwest;" vertex="1" parent="126">
                    <mxGeometry y="138" width="140" height="20" as="geometry"/>
                </mxCell>
                <mxCell id="131" value="append" style="text;html=1;strokeColor=none;fillColor=none;align=left;verticalAlign=middle;spacingLeft=4;spacingRight=4;overflow=hidden;rotatable=0;points=[[0,0.5],[1,0.5]];portConstraint=eastwest;" vertex="1" parent="126">
                    <mxGeometry y="158" width="140" height="20" as="geometry"/>
                </mxCell>
                <mxCell id="137" value="" style="endArrow=none;startArrow=diamondThin;endFill=0;startFill=1;html=1;verticalAlign=bottom;labelBackgroundColor=none;strokeWidth=1;startSize=8;endSize=8;entryX=1;entryY=0.126;entryDx=0;entryDy=0;entryPerimeter=0;exitX=1;exitY=0.5;exitDx=0;exitDy=0;" edge="1" parent="1" source="136" target="66">
                    <mxGeometry width="160" relative="1" as="geometry">
                        <mxPoint x="550" y="322" as="sourcePoint"/>
                        <mxPoint x="550.4199999999998" y="505.5759999999999" as="targetPoint"/>
                        <Array as="points">
                            <mxPoint x="570" y="318"/>
                            <mxPoint x="570" y="654"/>
                        </Array>
                    </mxGeometry>
                </mxCell>
                <mxCell id="138" value="" style="endArrow=none;startArrow=diamondThin;endFill=0;startFill=1;html=1;verticalAlign=bottom;labelBackgroundColor=none;strokeWidth=1;startSize=8;endSize=8;exitX=1;exitY=0.5;exitDx=0;exitDy=0;" edge="1" parent="1" source="125">
                    <mxGeometry width="160" relative="1" as="geometry">
                        <mxPoint x="550" y="350" as="sourcePoint"/>
                        <mxPoint x="540" y="815" as="targetPoint"/>
                        <Array as="points">
                            <mxPoint x="560" y="338"/>
                            <mxPoint x="560" y="815"/>
                        </Array>
                    </mxGeometry>
                </mxCell>
            </root>
        </mxGraphModel>
    </diagram>
</mxfile>